<svg xmlns="http://www.w3.org/2000/svg" width="2400" height="1600" viewBox="0 0 2400 1600" role="img" aria-labelledby="title desc">
  <title id="title">Megick Studio 架构设计图</title>
  <desc id="desc">A cyberpunk style system architecture diagram for Megick Studio, showing clients, web app, NestJS API, domain modules, async generation workers, storage, databases, and external providers.</desc>
  <defs>
    <linearGradient id="bg" x1="0" y1="0" x2="1" y2="1">
      <stop offset="0%" stop-color="#050716"/>
      <stop offset="42%" stop-color="#090921"/>
      <stop offset="72%" stop-color="#170728"/>
      <stop offset="100%" stop-color="#061a23"/>
    </linearGradient>
    <linearGradient id="cyan-magenta" x1="0" y1="0" x2="1" y2="1">
      <stop offset="0%" stop-color="#00f5ff"/>
      <stop offset="55%" stop-color="#9b5cff"/>
      <stop offset="100%" stop-color="#ff2bd6"/>
    </linearGradient>
    <linearGradient id="amber-cyan" x1="0" y1="0" x2="1" y2="0">
      <stop offset="0%" stop-color="#ffd166"/>
      <stop offset="48%" stop-color="#00f5ff"/>
      <stop offset="100%" stop-color="#ff2bd6"/>
    </linearGradient>
    <linearGradient id="panel-fill" x1="0" y1="0" x2="1" y2="1">
      <stop offset="0%" stop-color="#111a37" stop-opacity="0.92"/>
      <stop offset="100%" stop-color="#0b1024" stop-opacity="0.78"/>
    </linearGradient>
    <linearGradient id="panel-fill-hot" x1="0" y1="0" x2="1" y2="1">
      <stop offset="0%" stop-color="#261145" stop-opacity="0.92"/>
      <stop offset="100%" stop-color="#081827" stop-opacity="0.82"/>
    </linearGradient>
    <pattern id="grid" width="44" height="44" patternUnits="userSpaceOnUse">
      <path d="M44 0H0V44" fill="none" stroke="#32f7ff" stroke-opacity="0.08" stroke-width="1"/>
    </pattern>
    <pattern id="micro-grid" width="12" height="12" patternUnits="userSpaceOnUse">
      <path d="M12 0H0V12" fill="none" stroke="#ff2bd6" stroke-opacity="0.045" stroke-width="1"/>
    </pattern>
    <filter id="soft-glow" x="-40%" y="-40%" width="180%" height="180%">
      <feGaussianBlur stdDeviation="8" result="blur"/>
      <feColorMatrix in="blur" type="matrix" values="0 0 0 0 0  0 0 0 0 0.95  0 0 0 0 1  0 0 0 0.8 0" result="cyanBlur"/>
      <feMerge>
        <feMergeNode in="cyanBlur"/>
        <feMergeNode in="SourceGraphic"/>
      </feMerge>
    </filter>
    <filter id="magenta-glow" x="-40%" y="-40%" width="180%" height="180%">
      <feGaussianBlur stdDeviation="7" result="blur"/>
      <feColorMatrix in="blur" type="matrix" values="0 0 0 0 1  0 0 0 0 0.12  0 0 0 0 0.82  0 0 0 0.75 0" result="pinkBlur"/>
      <feMerge>
        <feMergeNode in="pinkBlur"/>
        <feMergeNode in="SourceGraphic"/>
      </feMerge>
    </filter>
    <filter id="card-shadow" x="-30%" y="-30%" width="160%" height="160%">
      <feDropShadow dx="0" dy="0" stdDeviation="8" flood-color="#00f5ff" flood-opacity="0.22"/>
      <feDropShadow dx="0" dy="18" stdDeviation="26" flood-color="#000000" flood-opacity="0.5"/>
    </filter>
    <marker id="arrow-cyan" viewBox="0 0 12 12" refX="10" refY="6" markerWidth="12" markerHeight="12" orient="auto-start-reverse">
      <path d="M1 1L11 6L1 11Z" fill="#00f5ff"/>
    </marker>
    <marker id="arrow-magenta" viewBox="0 0 12 12" refX="10" refY="6" markerWidth="12" markerHeight="12" orient="auto-start-reverse">
      <path d="M1 1L11 6L1 11Z" fill="#ff2bd6"/>
    </marker>
    <marker id="arrow-amber" viewBox="0 0 12 12" refX="10" refY="6" markerWidth="12" markerHeight="12" orient="auto-start-reverse">
      <path d="M1 1L11 6L1 11Z" fill="#ffd166"/>
    </marker>
    <style>
      .bg-text { font-family: "Inter", "SF Pro Display", "Segoe UI", "Noto Sans SC", Arial, sans-serif; }
      .mono { font-family: "JetBrains Mono", "SFMono-Regular", Consolas, monospace; }
      .title { font-size: 58px; font-weight: 850; letter-spacing: 1px; fill: #f7fbff; }
      .subtitle { font-size: 23px; fill: #9befff; letter-spacing: 0.5px; }
      .section-title { font-size: 25px; font-weight: 800; fill: #ffffff; letter-spacing: 1.2px; }
      .eyebrow { font-size: 14px; font-weight: 700; fill: #ffd166; letter-spacing: 4px; }
      .label { font-size: 19px; font-weight: 750; fill: #f8fbff; }
      .small { font-size: 15px; fill: #b8d8ef; }
      .tiny { font-size: 12px; fill: #86b8ce; letter-spacing: 0.6px; }
      .chip { font-size: 13px; font-weight: 750; fill: #06111f; }
      .panel { fill: url(#panel-fill); stroke: #27efff; stroke-width: 1.3; filter: url(#card-shadow); }
      .panel-hot { fill: url(#panel-fill-hot); stroke: #ff2bd6; stroke-width: 1.3; filter: url(#card-shadow); }
      .module { fill: rgba(4, 14, 32, 0.86); stroke: rgba(130, 247, 255, 0.62); stroke-width: 1.1; }
      .module-hot { fill: rgba(30, 9, 42, 0.86); stroke: rgba(255, 43, 214, 0.7); stroke-width: 1.1; }
      .module-amber { fill: rgba(34, 22, 8, 0.8); stroke: rgba(255, 209, 102, 0.72); stroke-width: 1.1; }
      .flow { fill: none; stroke: #00f5ff; stroke-width: 3; stroke-linecap: round; stroke-linejoin: round; marker-end: url(#arrow-cyan); filter: url(#soft-glow); }
      .flow-hot { fill: none; stroke: #ff2bd6; stroke-width: 3; stroke-linecap: round; stroke-linejoin: round; marker-end: url(#arrow-magenta); filter: url(#magenta-glow); }
      .flow-amber { fill: none; stroke: #ffd166; stroke-width: 3; stroke-linecap: round; stroke-linejoin: round; marker-end: url(#arrow-amber); }
      .dash { stroke-dasharray: 9 10; }
      .glow-line { stroke: url(#amber-cyan); stroke-width: 2; opacity: 0.75; }
    </style>
  </defs>

  <rect width="2400" height="1600" fill="url(#bg)"/>
  <rect width="2400" height="1600" fill="url(#grid)"/>
  <rect width="2400" height="1600" fill="url(#micro-grid)"/>
  <circle cx="340" cy="230" r="260" fill="#00f5ff" opacity="0.08"/>
  <circle cx="2030" cy="230" r="310" fill="#ff2bd6" opacity="0.11"/>
  <circle cx="1870" cy="1350" r="360" fill="#00f5ff" opacity="0.07"/>
  <path d="M95 1510H2280M140 1460H2220M220 1410H2140" class="glow-line"/>
  <path d="M0 1290C410 1200 680 1260 1060 1160C1440 1060 1740 1180 2400 1005V1600H0Z" fill="#060b1a" opacity="0.38"/>

  <g class="bg-text">
    <text x="90" y="96" class="eyebrow">MEGICK STUDIO / OPEN SOURCE AIGC WORKSPACE</text>
    <text x="90" y="164" class="title">Megick Studio 架构设计图</text>
    <text x="90" y="205" class="subtitle">TanStack Start + React 前端 / NestJS API / BullMQ 生成队列 / Prisma + MySQL / Aliyun OSS 默认存储 / Electron 桌面壳</text>

    <g transform="translate(1815,82)">
      <rect x="0" y="0" width="480" height="104" rx="18" fill="rgba(6,18,40,0.74)" stroke="#ffd166" stroke-width="1.2"/>
      <text x="24" y="36" class="tiny mono">DEPLOYMENT SIGNAL</text>
      <text x="24" y="66" class="small">API cluster serves REST + built web app</text>
      <text x="24" y="91" class="small">Worker process consumes generation queue</text>
    </g>
  </g>

  <g id="panels" class="bg-text">
    <g id="clients">
      <rect x="72" y="300" width="415" height="395" rx="28" class="panel"/>
      <text x="104" y="346" class="eyebrow">01 CLIENTS</text>
      <text x="104" y="382" class="section-title">客户端体验层</text>
      <g transform="translate(108,420)">
        <rect x="0" y="0" width="338" height="62" rx="15" class="module"/>
        <text x="22" y="31" class="label">Web Browser</text>
        <text x="22" y="53" class="small">Public pages / dashboard / admin</text>
      </g>
      <g transform="translate(108,500)">
        <rect x="0" y="0" width="338" height="62" rx="15" class="module"/>
        <text x="22" y="31" class="label">Electron Desktop Shell</text>
        <text x="22" y="53" class="small">Frameless window + updater IPC</text>
      </g>
      <g transform="translate(108,580)">
        <rect x="0" y="0" width="338" height="62" rx="15" class="module"/>
        <text x="22" y="31" class="label">MegickCut Editor</text>
        <text x="22" y="53" class="small">Timeline / subtitles / export UI</text>
      </g>
    </g>

    <g id="web">
      <rect x="560" y="270" width="480" height="455" rx="28" class="panel-hot"/>
      <text x="592" y="316" class="eyebrow">02 WEB APP</text>
      <text x="592" y="352" class="section-title">TanStack Start 前端</text>
      <text x="592" y="383" class="small">React 19, Router file routes, Query, Tailwind 4, i18n</text>
      <g transform="translate(598,420)">
        <rect x="0" y="0" width="185" height="66" rx="15" class="module-hot"/>
        <text x="20" y="31" class="label">Public</text>
        <text x="20" y="53" class="small">Home / templates</text>
      </g>
      <g transform="translate(810,420)">
        <rect x="0" y="0" width="185" height="66" rx="15" class="module-hot"/>
        <text x="20" y="31" class="label">Dashboard</text>
        <text x="20" y="53" class="small">Studio / media</text>
      </g>
      <g transform="translate(598,505)">
        <rect x="0" y="0" width="185" height="66" rx="15" class="module-hot"/>
        <text x="20" y="31" class="label">Admin</text>
        <text x="20" y="53" class="small">Ops console</text>
      </g>
      <g transform="translate(810,505)">
        <rect x="0" y="0" width="185" height="66" rx="15" class="module-hot"/>
        <text x="20" y="31" class="label">Studio Panels</text>
        <text x="20" y="53" class="small">Image / video</text>
      </g>
      <g transform="translate(598,592)">
        <rect x="0" y="0" width="397" height="78" rx="16" class="module"/>
        <text x="22" y="33" class="label">api-client + shared @megick/api-types</text>
        <text x="22" y="58" class="small">Typed REST contracts, auth state, query cache</text>
      </g>
    </g>

    <g id="api">
      <rect x="1112" y="240" width="555" height="545" rx="30" class="panel"/>
      <text x="1145" y="286" class="eyebrow">03 API GATEWAY</text>
      <text x="1145" y="322" class="section-title">NestJS 11 应用入口</text>
      <text x="1145" y="353" class="small">ValidationPipe / JwtAuthGuard / Swagger / pino / Helmet / cookies</text>
      <g transform="translate(1150,392)">
        <rect x="0" y="0" width="230" height="66" rx="15" class="module"/>
        <text x="20" y="31" class="label">Auth + OAuth</text>
        <text x="20" y="53" class="small">Session cookie mg_session</text>
      </g>
      <g transform="translate(1405,392)">
        <rect x="0" y="0" width="220" height="66" rx="15" class="module"/>
        <text x="20" y="31" class="label">RBAC + Admin</text>
        <text x="20" y="53" class="small">Roles, audit, ops</text>
      </g>
      <g transform="translate(1150,477)">
        <rect x="0" y="0" width="230" height="66" rx="15" class="module-hot"/>
        <text x="20" y="31" class="label">Generation Jobs</text>
        <text x="20" y="53" class="small">async / sync / SSE</text>
      </g>
      <g transform="translate(1405,477)">
        <rect x="0" y="0" width="220" height="66" rx="15" class="module-hot"/>
        <text x="20" y="31" class="label">AI Models</text>
        <text x="20" y="53" class="small">provider binding</text>
      </g>
      <g transform="translate(1150,562)">
        <rect x="0" y="0" width="230" height="66" rx="15" class="module"/>
        <text x="20" y="31" class="label">Templates</text>
        <text x="20" y="53" class="small">Prompt catalog</text>
      </g>
      <g transform="translate(1405,562)">
        <rect x="0" y="0" width="220" height="66" rx="15" class="module"/>
        <text x="20" y="31" class="label">Media Center</text>
        <text x="20" y="53" class="small">Generated assets</text>
      </g>
      <g transform="translate(1150,647)">
        <rect x="0" y="0" width="230" height="66" rx="15" class="module"/>
        <text x="20" y="31" class="label">Cloud Resources</text>
        <text x="20" y="53" class="small">OSS / R2 config</text>
      </g>
      <g transform="translate(1405,647)">
        <rect x="0" y="0" width="220" height="66" rx="15" class="module"/>
        <text x="20" y="31" class="label">Desktop Updates</text>
        <text x="20" y="53" class="small">Release delivery</text>
      </g>
    </g>

    <g id="workers">
      <rect x="1745" y="300" width="578" height="395" rx="28" class="panel-hot"/>
      <text x="1778" y="346" class="eyebrow">04 ASYNC ENGINE</text>
      <text x="1778" y="382" class="section-title">BullMQ 生成任务引擎</text>
      <text x="1778" y="413" class="small">MEGICK_RUN_WORKERS=true 独立 Worker；API 进程可关闭 worker</text>
      <g transform="translate(1785,455)">
        <rect x="0" y="0" width="235" height="78" rx="16" class="module-hot"/>
        <text x="20" y="33" class="label">Text2ImageProcessor</text>
        <text x="20" y="58" class="small">TEXT2IMAGE / IMAGE_EDIT</text>
      </g>
      <g transform="translate(2045,455)">
        <rect x="0" y="0" width="235" height="78" rx="16" class="module-hot"/>
        <text x="20" y="33" class="label">Image2VideoProcessor</text>
        <text x="20" y="58" class="small">IMAGE2VIDEO handoff</text>
      </g>
      <g transform="translate(1785,555)">
        <rect x="0" y="0" width="495" height="78" rx="16" class="module"/>
        <text x="20" y="33" class="label">GenerationProviderClient + adapters</text>
        <text x="20" y="58" class="small">OPENAI / CREX / VOLCENGINE, polling, parsing, snapshots</text>
      </g>
    </g>

    <g id="data">
      <rect x="104" y="890" width="675" height="435" rx="30" class="panel"/>
      <text x="137" y="936" class="eyebrow">05 DATA PLANE</text>
      <text x="137" y="972" class="section-title">数据持久化与队列</text>
      <g transform="translate(142,1012)">
        <rect x="0" y="0" width="280" height="86" rx="18" class="module"/>
        <text x="24" y="36" class="label">MySQL 8 + Prisma</text>
        <text x="24" y="63" class="small">Users, roles, jobs, templates</text>
      </g>
      <g transform="translate(460,1012)">
        <rect x="0" y="0" width="280" height="86" rx="18" class="module-hot"/>
        <text x="24" y="36" class="label">Redis + BullMQ</text>
        <text x="24" y="63" class="small">Generation queue, retries</text>
      </g>
      <g transform="translate(142,1126)">
        <rect x="0" y="0" width="598" height="144" rx="20" class="module"/>
        <text x="24" y="35" class="label">核心表</text>
        <text x="24" y="66" class="small">User / AIModel / ModelProviderConfig / GenerationJob</text>
        <text x="24" y="95" class="small">OssAsset / MediaCenterItem / PromptTemplate / ChatSession</text>
        <text x="24" y="124" class="small">SiteSettings / DesktopRelease / Cloud configs / Audit</text>
      </g>
    </g>

    <g id="storage">
      <rect x="865" y="890" width="650" height="435" rx="30" class="panel"/>
      <text x="898" y="936" class="eyebrow">06 STORAGE FABRIC</text>
      <text x="898" y="972" class="section-title">对象存储与媒体交付</text>
      <g transform="translate(903,1012)">
        <rect x="0" y="0" width="285" height="86" rx="18" class="module"/>
        <text x="24" y="36" class="label">Aliyun OSS</text>
        <text x="24" y="63" class="small">默认：uploads / generated media</text>
      </g>
      <g transform="translate(1210,1012)">
        <rect x="0" y="0" width="265" height="86" rx="18" class="module-amber"/>
        <text x="24" y="36" class="label">Cloudflare R2</text>
        <text x="24" y="63" class="small">仅明确需求使用</text>
      </g>
      <g transform="translate(903,1126)">
        <rect x="0" y="0" width="572" height="144" rx="20" class="module"/>
        <text x="24" y="35" class="label">媒体访问策略</text>
        <text x="24" y="66" class="small">Signed URLs, content proxy, thumbnails, watermark flags</text>
        <text x="24" y="95" class="small">资产 key：avatars / generations / templates / showcase</text>
        <text x="24" y="124" class="small">GenerationOutputMedia 映射 job output 到 OSS asset</text>
      </g>
    </g>

    <g id="external">
      <rect x="1600" y="890" width="680" height="435" rx="30" class="panel-hot"/>
      <text x="1633" y="936" class="eyebrow">07 EXTERNAL SERVICES</text>
      <text x="1633" y="972" class="section-title">外部模型与平台服务</text>
      <g transform="translate(1638,1012)">
        <rect x="0" y="0" width="286" height="86" rx="18" class="module-hot"/>
        <text x="24" y="36" class="label">Model Providers</text>
        <text x="24" y="63" class="small">OPENAI / CREX / VOLCENGINE</text>
      </g>
      <g transform="translate(1950,1012)">
        <rect x="0" y="0" width="286" height="86" rx="18" class="module"/>
        <text x="24" y="36" class="label">OAuth + SMTP</text>
        <text x="24" y="63" class="small">Google / GitHub / Apple, email</text>
      </g>
      <g transform="translate(1638,1126)">
        <rect x="0" y="0" width="598" height="144" rx="20" class="module-hot"/>
        <text x="24" y="35" class="label">供应商协议快照</text>
        <text x="24" y="66" class="small">baseUrl / statusUrl / apiStyle / modelName / params</text>
        <text x="24" y="95" class="small">适配器负责 reference images, async polling, output parsing</text>
        <text x="24" y="124" class="small">结果回存 OSS，再更新 GenerationJob / MediaCenter</text>
      </g>
    </g>
  </g>

  <g id="flows">
    <path d="M487 488 C525 488 527 488 560 488" class="flow"/>
    <text x="508" y="472" class="tiny mono bg-text">HTTPS UI</text>
    <path d="M1040 507 C1070 507 1080 507 1112 507" class="flow"/>
    <text x="1051" y="491" class="tiny mono bg-text">REST / SSE</text>
    <path d="M1667 513 C1705 513 1708 513 1745 513" class="flow-hot"/>
    <text x="1686" y="496" class="tiny mono bg-text">enqueue</text>
    <path d="M2034 695 C2034 773 2034 812 2034 890" class="flow-hot"/>
    <text x="2051" y="802" class="tiny mono bg-text">provider calls</text>
    <path d="M1745 606 C1650 640 1580 740 1450 890" class="flow"/>
    <text x="1590" y="720" class="tiny mono bg-text">persist outputs</text>
    <path d="M1330 785 C1280 824 1245 852 1210 890" class="flow"/>
    <text x="1262" y="844" class="tiny mono bg-text">signed assets</text>
    <path d="M1210 785 C1040 827 845 846 718 890" class="flow"/>
    <text x="920" y="842" class="tiny mono bg-text">Prisma writes</text>
    <path d="M460 890 C505 805 585 748 650 725" class="flow-amber dash"/>
    <text x="468" y="824" class="tiny mono bg-text">model/menu/template data</text>
    <path d="M779 1128 C805 1128 834 1128 865 1128" class="flow"/>
    <text x="790" y="1111" class="tiny mono bg-text">asset metadata</text>
    <path d="M1515 1128 C1545 1128 1570 1128 1600 1128" class="flow-hot"/>
    <text x="1524" y="1111" class="tiny mono bg-text">provider config</text>
    <path d="M1240 1325 C1040 1440 712 1442 418 1325" class="flow-amber dash"/>
    <text x="748" y="1407" class="tiny mono bg-text">jobs / outputs / media center reconciliation</text>
  </g>

  <g id="deployment" class="bg-text">
    <rect x="104" y="1390" width="2175" height="122" rx="26" fill="rgba(6,18,40,0.82)" stroke="url(#cyan-magenta)" stroke-width="1.5" filter="url(#card-shadow)"/>
    <text x="138" y="1435" class="eyebrow">DEPLOYMENT TOPOLOGY</text>
    <text x="138" y="1472" class="label">PM2：megick-api cluster serves NestJS REST + TanStack Start build；megick-worker fork consumes BullMQ jobs</text>
    <text x="138" y="1502" class="small">Production env: WEB_DIST_DIR=../web/dist, MEGICK_RUN_WORKERS=false for API, SERVE_WEB=false + MEGICK_RUN_WORKERS=true for workers. Nginx optional in front.</text>
  </g>

  <g id="legend" class="bg-text">
    <rect x="1830" y="1450" width="410" height="38" rx="19" fill="rgba(0,245,255,0.12)" stroke="#00f5ff" stroke-opacity="0.55"/>
    <circle cx="1856" cy="1469" r="7" fill="#00f5ff"/>
    <text x="1874" y="1475" class="tiny mono">cyan = user/data flow</text>
    <circle cx="2030" cy="1469" r="7" fill="#ff2bd6"/>
    <text x="2048" y="1475" class="tiny mono">magenta = generation</text>
  </g>
</svg>
